<?xml version="1.0" encoding="UTF-8"?>
<!--Generator: Apple Native CoreSVG 149-->
<!DOCTYPE svg
PUBLIC "-//W3C//DTD SVG 1.1//EN"
       "http://www.w3.org/Graphics/SVG/1.1/DTD/svg11.dtd">
<svg version="1.1" xmlns="http://www.w3.org/2000/svg" xmlns:xlink="http://www.w3.org/1999/xlink" width="3300" height="2200">
 <!--glyph: "uni10026A.medium", point size: 100.000000, font version: "Version 16.0d18e1", template writer version: "8"-->
 <g id="Notes">
  <rect height="2200" id="artboard" style="fill:white;opacity:1" width="3300" x="0" y="0"/>
  <line id="" style="fill:none;stroke:black;opacity:1;stroke-width:0.5;" x1="263" x2="3036" y1="292" y2="292"/>
  <text style="stroke:none;fill:black;font-family:-apple-system,&quot;SF Pro Display&quot;,&quot;SF Pro Text&quot;,Helvetica,sans-serif;font-weight:bold;" transform="matrix(1 0 0 1 263 322)">Weight/Scale Variations</text>
  <text style="stroke:none;fill:black;font-family:-apple-system,&quot;SF Pro Display&quot;,&quot;SF Pro Text&quot;,Helvetica,sans-serif;text-anchor:middle;" transform="matrix(1 0 0 1 559.711 322)">Ultralight</text>
  <text style="stroke:none;fill:black;font-family:-apple-system,&quot;SF Pro Display&quot;,&quot;SF Pro Text&quot;,Helvetica,sans-serif;text-anchor:middle;" transform="matrix(1 0 0 1 856.422 322)">Thin</text>
  <text style="stroke:none;fill:black;font-family:-apple-system,&quot;SF Pro Display&quot;,&quot;SF Pro Text&quot;,Helvetica,sans-serif;text-anchor:middle;" transform="matrix(1 0 0 1 1153.13 322)">Light</text>
  <text style="stroke:none;fill:black;font-family:-apple-system,&quot;SF Pro Display&quot;,&quot;SF Pro Text&quot;,Helvetica,sans-serif;text-anchor:middle;" transform="matrix(1 0 0 1 1449.84 322)">Regular</text>
  <text style="stroke:none;fill:black;font-family:-apple-system,&quot;SF Pro Display&quot;,&quot;SF Pro Text&quot;,Helvetica,sans-serif;text-anchor:middle;" transform="matrix(1 0 0 1 1746.56 322)">Medium</text>
  <text style="stroke:none;fill:black;font-family:-apple-system,&quot;SF Pro Display&quot;,&quot;SF Pro Text&quot;,Helvetica,sans-serif;text-anchor:middle;" transform="matrix(1 0 0 1 2043.27 322)">Semibold</text>
  <text style="stroke:none;fill:black;font-family:-apple-system,&quot;SF Pro Display&quot;,&quot;SF Pro Text&quot;,Helvetica,sans-serif;text-anchor:middle;" transform="matrix(1 0 0 1 2339.98 322)">Bold</text>
  <text style="stroke:none;fill:black;font-family:-apple-system,&quot;SF Pro Display&quot;,&quot;SF Pro Text&quot;,Helvetica,sans-serif;text-anchor:middle;" transform="matrix(1 0 0 1 2636.69 322)">Heavy</text>
  <text style="stroke:none;fill:black;font-family:-apple-system,&quot;SF Pro Display&quot;,&quot;SF Pro Text&quot;,Helvetica,sans-serif;text-anchor:middle;" transform="matrix(1 0 0 1 2933.4 322)">Black</text>
  <line id="" style="fill:none;stroke:black;opacity:1;stroke-width:0.5;" x1="263" x2="3036" y1="1903" y2="1903"/>
  <g id="" transform="matrix(1 0 0 1 263 1933)">
   <path d="M9.24805 0.830078C13.5547 0.830078 17.1387-2.74414 17.1387-7.05078C17.1387-11.3574 13.5449-14.9316 9.23828-14.9316C4.94141-14.9316 1.36719-11.3574 1.36719-7.05078C1.36719-2.74414 4.95117 0.830078 9.24805 0.830078ZM9.24805-0.654297C5.70312-0.654297 2.87109-3.49609 2.87109-7.05078C2.87109-10.6055 5.69336-13.4473 9.23828-13.4473C12.793-13.4473 15.6348-10.6055 15.6445-7.05078C15.6543-3.49609 12.8027-0.654297 9.24805-0.654297ZM6.39648-6.31836L8.50586-6.31836L8.50586-4.19922C8.50586-3.75977 8.79883-3.45703 9.22852-3.45703C9.67773-3.45703 9.9707-3.75977 9.9707-4.19922L9.9707-6.31836L12.0996-6.31836C12.5391-6.31836 12.8418-6.61133 12.8418-7.04102C12.8418-7.48047 12.5391-7.7832 12.0996-7.7832L9.9707-7.7832L9.9707-9.89258C9.9707-10.3418 9.67773-10.6445 9.22852-10.6445C8.79883-10.6445 8.50586-10.3418 8.50586-9.89258L8.50586-7.7832L6.39648-7.7832C5.94727-7.7832 5.64453-7.48047 5.64453-7.04102C5.64453-6.61133 5.94727-6.31836 6.39648-6.31836Z"/>
  </g>
  <g id="" transform="matrix(1 0 0 1 281.506 1933)">
   <path d="M11.709 2.91016C17.1582 2.91016 21.6699-1.61133 21.6699-7.05078C21.6699-12.5 17.1484-17.0117 11.6992-17.0117C6.25977-17.0117 1.74805-12.5 1.74805-7.05078C1.74805-1.61133 6.26953 2.91016 11.709 2.91016ZM11.709 1.25C7.09961 1.25 3.41797-2.44141 3.41797-7.05078C3.41797-11.6602 7.08984-15.3516 11.6992-15.3516C16.3086-15.3516 20-11.6602 20.0098-7.05078C20.0195-2.44141 16.3184 1.25 11.709 1.25ZM7.98828-6.23047L10.8789-6.23047L10.8789-3.32031C10.8789-2.83203 11.2109-2.5 11.6895-2.5C12.1777-2.5 12.5195-2.83203 12.5195-3.32031L12.5195-6.23047L15.4297-6.23047C15.918-6.23047 16.25-6.5625 16.25-7.04102C16.25-7.5293 15.918-7.87109 15.4297-7.87109L12.5195-7.87109L12.5195-10.7617C12.5195-11.2695 12.1777-11.6016 11.6895-11.6016C11.2109-11.6016 10.8789-11.2598 10.8789-10.7617L10.8789-7.87109L7.98828-7.87109C7.48047-7.87109 7.14844-7.5293 7.14844-7.04102C7.14844-6.5625 7.49023-6.23047 7.98828-6.23047Z"/>
  </g>
  <g id="" transform="matrix(1 0 0 1 304.924 1933)">
   <path d="M14.9707 5.66406C21.9336 5.66406 27.6953-0.0976562 27.6953-7.05078C27.6953-14.0137 21.9238-19.7754 14.9609-19.7754C8.00781-19.7754 2.25586-14.0137 2.25586-7.05078C2.25586-0.0976562 8.01758 5.66406 14.9707 5.66406ZM14.9707 3.84766C8.93555 3.84766 4.08203-1.01562 4.08203-7.05078C4.08203-13.0957 8.92578-17.9492 14.9609-17.9492C21.0059-17.9492 25.8594-13.0957 25.8691-7.05078C25.8789-1.01562 21.0156 3.84766 14.9707 3.84766ZM10.0586-6.14258L14.0625-6.14258L14.0625-2.12891C14.0625-1.5918 14.4336-1.2207 14.9512-1.2207C15.4883-1.2207 15.8594-1.5918 15.8594-2.12891L15.8594-6.14258L19.8828-6.14258C20.4102-6.14258 20.791-6.51367 20.791-7.03125C20.791-7.56836 20.4199-7.94922 19.8828-7.94922L15.8594-7.94922L15.8594-11.9531C15.8594-12.5098 15.4883-12.8809 14.9512-12.8809C14.4336-12.8809 14.0625-12.5 14.0625-11.9531L14.0625-7.94922L10.0586-7.94922C9.50195-7.94922 9.13086-7.56836 9.13086-7.03125C9.13086-6.51367 9.51172-6.14258 10.0586-6.14258Z"/>
  </g>
  <text style="stroke:none;fill:black;font-family:-apple-system,&quot;SF Pro Display&quot;,&quot;SF Pro Text&quot;,Helvetica,sans-serif;font-weight:bold;" transform="matrix(1 0 0 1 263 1953)">Design Variations</text>
  <text style="stroke:none;fill:black;font-family:-apple-system,&quot;SF Pro Display&quot;,&quot;SF Pro Text&quot;,Helvetica,sans-serif;" transform="matrix(1 0 0 1 263 1971)">Symbols are supported in up to nine weights and three scales.</text>
  <text style="stroke:none;fill:black;font-family:-apple-system,&quot;SF Pro Display&quot;,&quot;SF Pro Text&quot;,Helvetica,sans-serif;" transform="matrix(1 0 0 1 263 1989)">For optimal layout with text and other symbols, vertically align</text>
  <text style="stroke:none;fill:black;font-family:-apple-system,&quot;SF Pro Display&quot;,&quot;SF Pro Text&quot;,Helvetica,sans-serif;" transform="matrix(1 0 0 1 263 2007)">symbols with the adjacent text.</text>
  <line id="" style="fill:none;stroke:#00AEEF;stroke-width:0.5;opacity:1.0;" x1="776" x2="776" y1="1919" y2="1933"/>
  <g id="" transform="matrix(1 0 0 1 776 1933)">
   <path d="M3.31055 0.126953C3.82812 0.126953 4.08203-0.0683594 4.26758-0.605469L5.52734-4.0625L11.2891-4.0625L12.5488-0.605469C12.7344-0.0683594 12.9883 0.126953 13.4961 0.126953C14.0137 0.126953 14.3457-0.185547 14.3457-0.673828C14.3457-0.839844 14.3164-0.986328 14.2383-1.20117L9.6582-13.3887C9.43359-13.9941 9.0332-14.2871 8.4082-14.2871C7.80273-14.2871 7.39258-13.9941 7.17773-13.3984L2.59766-1.19141C2.51953-0.976562 2.49023-0.830078 2.49023-0.664062C2.49023-0.175781 2.80273 0.126953 3.31055 0.126953ZM6.00586-5.53711L8.37891-12.1094L8.42773-12.1094L10.8008-5.53711Z"/>
  </g>
  <line id="" style="fill:none;stroke:#00AEEF;stroke-width:0.5;opacity:1.0;" x1="792.836" x2="792.836" y1="1919" y2="1933"/>
  <text style="stroke:none;fill:black;font-family:-apple-system,&quot;SF Pro Display&quot;,&quot;SF Pro Text&quot;,Helvetica,sans-serif;font-weight:bold;" transform="matrix(1 0 0 1 776 1953)">Margins</text>
  <text style="stroke:none;fill:black;font-family:-apple-system,&quot;SF Pro Display&quot;,&quot;SF Pro Text&quot;,Helvetica,sans-serif;" transform="matrix(1 0 0 1 776 1971)">Leading and trailing margins on the left and right side of each symbol</text>
  <text style="stroke:none;fill:black;font-family:-apple-system,&quot;SF Pro Display&quot;,&quot;SF Pro Text&quot;,Helvetica,sans-serif;" transform="matrix(1 0 0 1 776 1989)">can be adjusted by modifying the x-location of the margin guidelines.</text>
  <text style="stroke:none;fill:black;font-family:-apple-system,&quot;SF Pro Display&quot;,&quot;SF Pro Text&quot;,Helvetica,sans-serif;" transform="matrix(1 0 0 1 776 2007)">Modifications are automatically applied proportionally to all</text>
  <text style="stroke:none;fill:black;font-family:-apple-system,&quot;SF Pro Display&quot;,&quot;SF Pro Text&quot;,Helvetica,sans-serif;" transform="matrix(1 0 0 1 776 2025)">scales and weights.</text>
  <g id="" transform="matrix(1 0 0 1 1289 1933)">
   <path d="M2.8418 1.86523L4.54102 3.57422C5.40039 4.44336 6.38672 4.38477 7.31445 3.35938L17.4902-7.85156C17.7539-7.76367 18.0273-7.7832 18.3398-7.8418L19.4043-8.03711L20.0684-7.36328L20.0293-6.80664C19.9902-6.30859 20.1172-5.92773 20.6055-5.44922L21.3672-4.70703C21.8457-4.22852 22.4609-4.19922 22.9297-4.66797L25.8398-7.58789C26.3086-8.05664 26.2891-8.65234 25.8105-9.13086L25.0391-9.89258C24.5605-10.3711 24.1895-10.5273 23.7109-10.4883L23.1348-10.4395L22.4902-11.0742L22.7344-12.1973C22.8613-12.7637 22.7051-13.2031 22.1191-13.7891L19.9219-15.9766C16.582-19.2969 12.1484-19.2188 9.25781-16.3281C8.83789-15.918 8.80859-15.3418 9.04297-14.9512C9.27734-14.5898 9.73633-14.3555 10.3809-14.5215C11.8457-14.8633 13.3691-14.9219 14.7949-13.9844L14.209-12.5293C14.0137-12.0508 13.9844-11.6504 14.1113-11.2891L3.04688-0.898438C2.06055 0.0195312 1.98242 0.996094 2.8418 1.86523ZM10.752-15.957C13.1836-17.7344 16.4746-17.4316 18.7012-15.2051L21.1328-12.793C21.3672-12.5586 21.4062-12.373 21.3379-12.0312L21.0156-10.5469L22.5195-9.0625L23.5059-9.12109C23.7598-9.13086 23.8379-9.11133 24.0332-8.91602L24.6094-8.33984L22.168-5.89844L21.5918-6.47461C21.3965-6.66992 21.3672-6.74805 21.377-7.01172L21.4453-7.98828L19.9512-9.47266L18.4277-9.21875C18.1055-9.15039 17.959-9.17969 17.7148-9.41406L15.7129-11.416C15.459-11.6504 15.4297-11.8164 15.5859-12.1875L16.4648-14.2773C14.9023-15.7324 12.8711-16.3574 10.8398-15.7617C10.6836-15.7227 10.625-15.8496 10.752-15.957ZM5.27344 2.30469L4.10156 1.14258C3.63281 0.683594 3.74023 0.341797 4.14062-0.0195312L14.9512-10.1953L16.416-8.71094L6.42578 2.27539C6.07422 2.67578 5.74219 2.77344 5.27344 2.30469Z"/>
  </g>
  <text style="stroke:none;fill:black;font-family:-apple-system,&quot;SF Pro Display&quot;,&quot;SF Pro Text&quot;,Helvetica,sans-serif;font-weight:bold;" transform="matrix(1 0 0 1 1289 1953)">Exporting</text>
  <text style="stroke:none;fill:black;font-family:-apple-system,&quot;SF Pro Display&quot;,&quot;SF Pro Text&quot;,Helvetica,sans-serif;" transform="matrix(1 0 0 1 1289 1971)">Symbols should be outlined when exporting to ensure the</text>
  <text style="stroke:none;fill:black;font-family:-apple-system,&quot;SF Pro Display&quot;,&quot;SF Pro Text&quot;,Helvetica,sans-serif;" transform="matrix(1 0 0 1 1289 1989)">design is preserved when submitting to Xcode.</text>
  <text id="template-version" style="stroke:none;fill:black;font-family:-apple-system,&quot;SF Pro Display&quot;,&quot;SF Pro Text&quot;,Helvetica,sans-serif;text-anchor:end;" transform="matrix(1 0 0 1 3036 1933)">Template v.2.0</text>
  <text style="stroke:none;fill:black;font-family:-apple-system,&quot;SF Pro Display&quot;,&quot;SF Pro Text&quot;,Helvetica,sans-serif;text-anchor:end;" transform="matrix(1 0 0 1 3036 1951)">Requires Xcode 12 or greater</text>
  <text style="stroke:none;fill:black;font-family:-apple-system,&quot;SF Pro Display&quot;,&quot;SF Pro Text&quot;,Helvetica,sans-serif;text-anchor:end;" transform="matrix(1 0 0 1 3036 1969)">Generated from person.fill</text>
  <text style="stroke:none;fill:black;font-family:-apple-system,&quot;SF Pro Display&quot;,&quot;SF Pro Text&quot;,Helvetica,sans-serif;text-anchor:end;" transform="matrix(1 0 0 1 3036 1987)">Typeset at 100 points</text>
  <text style="stroke:none;fill:black;font-family:-apple-system,&quot;SF Pro Display&quot;,&quot;SF Pro Text&quot;,Helvetica,sans-serif;" transform="matrix(1 0 0 1 263 726)">Small</text>
  <text style="stroke:none;fill:black;font-family:-apple-system,&quot;SF Pro Display&quot;,&quot;SF Pro Text&quot;,Helvetica,sans-serif;" transform="matrix(1 0 0 1 263 1156)">Medium</text>
  <text style="stroke:none;fill:black;font-family:-apple-system,&quot;SF Pro Display&quot;,&quot;SF Pro Text&quot;,Helvetica,sans-serif;" transform="matrix(1 0 0 1 263 1586)">Large</text>
 </g>
 <g id="Guides">
  <g id="H-reference" style="fill:#27AAE1;stroke:none;" transform="matrix(1 0 0 1 339 696)">
   <path d="M0.976562 0L3.66211 0L12.9883-24.4629L45.752-24.4629L55.127 0L57.7637 0L30.6152-70.459L28.125-70.459ZM29.3457-67.1387L29.4434-67.1387L44.873-26.709L13.8672-26.709Z"/>
  </g>
  <line id="Baseline-S" style="fill:none;stroke:#27AAE1;opacity:1;stroke-width:0.5;" x1="263" x2="3036" y1="696" y2="696"/>
  <line id="Capline-S" style="fill:none;stroke:#27AAE1;opacity:1;stroke-width:0.5;" x1="263" x2="3036" y1="625.541" y2="625.541"/>
  <g id="H-reference" style="fill:#27AAE1;stroke:none;" transform="matrix(1 0 0 1 339 1126)">
   <path d="M0.976562 0L3.66211 0L12.9883-24.4629L45.752-24.4629L55.127 0L57.7637 0L30.6152-70.459L28.125-70.459ZM29.3457-67.1387L29.4434-67.1387L44.873-26.709L13.8672-26.709Z"/>
  </g>
  <line id="Baseline-M" style="fill:none;stroke:#27AAE1;opacity:1;stroke-width:0.5;" x1="263" x2="3036" y1="1126" y2="1126"/>
  <line id="Capline-M" style="fill:none;stroke:#27AAE1;opacity:1;stroke-width:0.5;" x1="263" x2="3036" y1="1055.54" y2="1055.54"/>
  <g id="H-reference" style="fill:#27AAE1;stroke:none;" transform="matrix(1 0 0 1 339 1556)">
   <path d="M0.976562 0L3.66211 0L12.9883-24.4629L45.752-24.4629L55.127 0L57.7637 0L30.6152-70.459L28.125-70.459ZM29.3457-67.1387L29.4434-67.1387L44.873-26.709L13.8672-26.709Z"/>
  </g>
  <line id="Baseline-L" style="fill:none;stroke:#27AAE1;opacity:1;stroke-width:0.5;" x1="263" x2="3036" y1="1556" y2="1556"/>
  <line id="Capline-L" style="fill:none;stroke:#27AAE1;opacity:1;stroke-width:0.5;" x1="263" x2="3036" y1="1485.54" y2="1485.54"/>
  <line id="left-margin" style="fill:none;stroke:#00AEEF;stroke-width:0.5;opacity:1.0;" x1="1396.3" x2="1396.3" y1="1030.79" y2="1150.12"/>
  <line id="right-margin" style="fill:none;stroke:#00AEEF;stroke-width:0.5;opacity:1.0;" x1="1503.38" x2="1503.38" y1="1030.79" y2="1150.12"/>
 </g>
 <g id="Symbols">
  <g id="Black-L" transform="matrix(1 0 0 1 2863.33 1556)">
   <path d="M70.0684-35.6934C84.6191-35.6934 96.2402-48.3398 96.2402-64.2578C96.2402-79.541 84.4727-92.2363 70.0684-92.2363C55.6152-92.2363 43.8477-79.4434 43.8965-64.209C43.9453-48.3398 55.5176-35.6934 70.0684-35.6934ZM31.9824 23.9258L108.154 23.9258C120.215 23.9258 124.072 19.7266 124.072 13.0371C124.072-2.97852 102.734-24.8535 70.0684-24.8535C37.3535-24.8535 16.0645-2.97852 16.0645 13.0371C16.0645 19.7266 19.873 23.9258 31.9824 23.9258Z"/>
  </g>
  <g id="Heavy-L" transform="matrix(1 0 0 1 2566.91 1556)">
   <path d="M69.8242-35.7422C84.1309-35.7422 95.7031-48.2422 95.7031-64.0625C95.7031-79.3945 83.9844-91.7969 69.8242-91.7969C55.6152-91.7969 43.8477-79.248 43.8965-64.0137C43.9453-48.2422 55.4688-35.7422 69.8242-35.7422ZM31.2012 23.4863L108.398 23.4863C119.775 23.4863 123.486 19.6777 123.486 13.2812C123.486-2.7832 102.441-24.7559 69.7754-24.7559C37.1094-24.7559 16.0645-2.7832 16.0645 13.2812C16.0645 19.6777 19.8242 23.4863 31.2012 23.4863Z"/>
  </g>
  <g id="Bold-L" transform="matrix(1 0 0 1 2270.5 1556)">
   <path d="M69.5312-35.7422C83.5938-35.7422 95.1172-48.0957 95.1172-63.8672C95.1172-79.1504 83.4473-91.3574 69.5312-91.3574C55.5664-91.3574 43.8477-79.0039 43.8965-63.8184C43.9453-48.0957 55.4688-35.7422 69.5312-35.7422ZM30.3223 23.0469L108.643 23.0469C119.238 23.0469 122.9 19.6289 122.9 13.5742C122.9-2.53906 102.1-24.6582 69.4824-24.6582C36.8652-24.6582 16.0645-2.53906 16.0645 13.5742C16.0645 19.6289 19.7266 23.0469 30.3223 23.0469Z"/>
  </g>
  <g id="Semibold-L" transform="matrix(1 0 0 1 1974 1556)">
   <path d="M69.2871-35.7422C83.2031-35.7422 94.6777-47.998 94.6777-63.7207C94.6777-79.0527 83.1055-91.0156 69.2871-91.0156C55.5176-91.0156 43.8477-78.8574 43.9453-63.6719C43.9453-47.998 55.4199-35.7422 69.2871-35.7422ZM29.6875 22.7051L108.838 22.7051C118.848 22.7051 122.461 19.6289 122.461 13.7695C122.461-2.39258 101.855-24.6094 69.2871-24.6094C36.6699-24.6094 16.0645-2.39258 16.0645 13.7695C16.0645 19.6289 19.6777 22.7051 29.6875 22.7051Z"/>
  </g>
  <g id="Medium-L" transform="matrix(1 0 0 1 1677.44 1556)">
   <path d="M69.1406-35.7422C82.9102-35.7422 94.3848-47.9492 94.3848-63.623C94.3848-78.9062 82.8125-90.7715 69.1406-90.7715C55.5176-90.7715 43.8965-78.7598 43.9453-63.5254C43.9453-47.9492 55.4199-35.7422 69.1406-35.7422ZM29.248 22.4609L108.984 22.4609C118.604 22.4609 122.168 19.5801 122.168 13.916C122.168-2.29492 101.709-24.5605 69.0918-24.5605C36.5234-24.5605 16.0645-2.29492 16.0645 13.916C16.0645 19.5801 19.6289 22.4609 29.248 22.4609Z"/>
  </g>
  <g id="Regular-L" transform="matrix(1 0 0 1 1380.95 1556)">
   <path d="M68.9453-35.791C82.5684-35.791 93.9941-47.8516 93.9941-63.5254C93.9941-78.8086 82.4707-90.4785 68.9453-90.4785C55.4688-90.4785 43.8965-78.5645 43.9453-63.3789C43.9453-47.8516 55.3711-35.791 68.9453-35.791ZM28.6133 22.168L109.18 22.168C118.213 22.168 121.729 19.5801 121.729 14.0625C121.729-2.14844 101.465-24.4629 68.8965-24.4629C36.3281-24.4629 16.0645-2.14844 16.0645 14.0625C16.0645 19.5801 19.5801 22.168 28.6133 22.168Z"/>
  </g>
  <g id="Light-L" transform="matrix(1 0 0 1 1084.48 1556)">
   <path d="M68.75-35.6445C82.4219-35.6445 93.5059-47.6074 93.5059-63.1836C93.5059-78.125 82.2754-89.9902 68.75-89.9902C55.2246-89.9902 43.8965-77.9785 43.9941-63.0859C43.9941-47.6074 55.0781-35.6445 68.75-35.6445ZM27.4414 21.8262L109.863 21.8262C117.773 21.8262 121.24 19.5312 121.24 14.0625C121.24-2.05078 101.074-24.3164 68.6523-24.3164C36.2305-24.3164 16.0645-2.05078 16.0645 14.0625C16.0645 19.5312 19.5312 21.8262 27.4414 21.8262Z"/>
  </g>
  <g id="Thin-L" transform="matrix(1 0 0 1 788.087 1556)">
   <path d="M68.5059-35.498C82.2754-35.498 92.9199-47.3145 92.9199-62.7441C92.9199-77.2461 82.0801-89.4043 68.5059-89.4043C54.9316-89.4043 43.8965-77.1973 44.043-62.6953C44.043-47.3145 54.6875-35.498 68.5059-35.498ZM25.8789 21.3379L110.791 21.3379C117.139 21.3379 120.605 19.4336 120.605 14.0137C120.605-2.00195 100.537-24.1211 68.3594-24.1211C36.1328-24.1211 16.0645-2.00195 16.0645 14.0137C16.0645 19.4336 19.5312 21.3379 25.8789 21.3379Z"/>
  </g>
  <g id="Ultralight-L" transform="matrix(1 0 0 1 491.523 1556)">
   <path d="M68.3594-35.4004C82.2266-35.4004 92.627-47.168 92.627-62.5C92.627-76.8066 81.9336-89.0625 68.3594-89.0625C54.7363-89.0625 43.8965-76.8066 44.043-62.5C44.043-47.168 54.4922-35.4004 68.3594-35.4004ZM25.0977 21.0449L111.279 21.0449C116.846 21.0449 120.312 19.3848 120.312 14.0137C120.312-1.95312 100.293-24.0234 68.1641-24.0234C36.0352-24.0234 16.0645-1.95312 16.0645 14.0137C16.0645 19.3848 19.5312 21.0449 25.0977 21.0449Z"/>
  </g>
  <g id="Black-M" transform="matrix(1 0 0 1 2878.86 1126)">
   <path d="M54.541-35.498C66.1621-35.498 75.0488-45.4102 75.0488-57.7637C75.0488-69.4824 66.0156-79.7363 54.541-79.7363C43.0664-79.7363 33.9355-69.4824 34.0332-57.7637C34.082-45.4102 42.9199-35.498 54.541-35.498ZM25.1953 10.9375L83.8867 10.9375C93.5547 10.9375 96.6309 7.37305 96.6309 1.85547C96.6309-10.498 79.834-27.2461 54.541-27.2461C29.248-27.2461 12.4512-10.498 12.4512 1.85547C12.4512 7.37305 15.5273 10.9375 25.1953 10.9375Z"/>
  </g>
  <g id="Heavy-M" transform="matrix(1 0 0 1 2582.39 1126)">
   <path d="M54.2969-35.5469C65.6738-35.5469 74.6094-45.3613 74.6094-57.666C74.6094-69.4336 65.5762-79.3945 54.2969-79.3945C43.0664-79.3945 33.9844-69.3848 34.0332-57.6172C34.082-45.3613 42.9688-35.5469 54.2969-35.5469ZM24.6582 10.5957L83.9355 10.5957C93.1641 10.5957 96.1426 7.32422 96.1426 2.14844C96.1426-10.2539 79.5898-27.1484 54.2969-27.1484C29.0039-27.1484 12.4512-10.2539 12.4512 2.14844C12.4512 7.32422 15.4297 10.5957 24.6582 10.5957Z"/>
  </g>
  <g id="Bold-M" transform="matrix(1 0 0 1 2285.95 1126)">
   <path d="M54.0527-35.5957C65.0879-35.5957 74.0723-45.2637 74.0723-57.5684C74.0723-69.4336 65.0391-79.0039 54.0527-79.0039C43.0664-79.0039 33.9844-69.3359 34.0332-57.5195C34.082-45.2637 43.0176-35.5957 54.0527-35.5957ZM24.0234 10.2051L84.0332 10.2051C92.7246 10.2051 95.6055 7.32422 95.6055 2.44141C95.6055-10.0586 79.3457-27.0996 54.0527-27.0996C28.7109-27.0996 12.4512-10.0586 12.4512 2.44141C12.4512 7.32422 15.332 10.2051 24.0234 10.2051Z"/>
  </g>
  <g id="Semibold-M" transform="matrix(1 0 0 1 1989.41 1126)">
   <path d="M53.8574-35.6445C64.6973-35.6445 73.7305-45.2148 73.7305-57.4707C73.7305-69.3848 64.6484-78.7598 53.8574-78.7598C43.1152-78.7598 33.9844-69.2871 34.0332-57.4219C34.0332-45.2148 43.0176-35.6445 53.8574-35.6445ZM23.6328 9.96094L84.082 9.96094C92.4316 9.96094 95.2637 7.27539 95.2637 2.63672C95.2637-9.86328 79.1504-27.0508 53.8574-27.0508C28.5156-27.0508 12.4512-9.86328 12.4512 2.63672C12.4512 7.27539 15.2832 9.96094 23.6328 9.96094Z"/>
  </g>
  <g id="Medium-M" transform="matrix(1 0 0 1 1692.84 1126)">
   <path d="M53.7598-35.6934C64.4043-35.6934 73.4375-45.166 73.4375-57.4219C73.4375-69.3848 64.3555-78.5645 53.7598-78.5645C43.1152-78.5645 33.9844-69.2383 34.0332-57.3242C34.0332-45.166 43.0664-35.6934 53.7598-35.6934ZM23.291 9.7168L84.1309 9.7168C92.1875 9.7168 94.9707 7.27539 94.9707 2.7832C94.9707-9.76562 79.0527-27.0508 53.7109-27.0508C28.418-27.0508 12.4512-9.76562 12.4512 2.7832C12.4512 7.27539 15.2344 9.7168 23.291 9.7168Z"/>
  </g>
  <g id="Regular-M" transform="matrix(1 0 0 1 1396.3 1126)">
   <path d="M53.5645-35.7422C64.0137-35.7422 73.0957-45.1172 73.0957-57.3242C73.0957-69.3848 64.0137-78.3203 53.5645-78.3203C43.1152-78.3203 34.0332-69.1895 34.0332-57.2266C34.0332-45.1172 43.0664-35.7422 53.5645-35.7422ZM22.8516 9.47266L84.1797 9.47266C91.8945 9.47266 94.6289 7.27539 94.6289 2.97852C94.6289-9.61914 78.8574-27.002 53.5156-27.002C28.2227-27.002 12.4512-9.61914 12.4512 2.97852C12.4512 7.27539 15.1855 9.47266 22.8516 9.47266Z"/>
  </g>
  <g id="Light-M" transform="matrix(1 0 0 1 1099.81 1126)">
   <path d="M53.3691-35.5957C63.916-35.5957 72.7051-44.9219 72.7051-57.0312C72.7051-68.75 63.8672-77.8809 53.3691-77.8809C42.9199-77.8809 34.0332-68.6523 34.082-56.9824C34.082-44.9219 42.8223-35.5957 53.3691-35.5957ZM21.8262 9.13086L84.8145 9.13086C91.4551 9.13086 94.1895 7.22656 94.1895 2.97852C94.1895-9.57031 78.5156-26.8555 53.3203-26.8555C28.125-26.8555 12.4512-9.57031 12.4512 2.97852C12.4512 7.22656 15.1855 9.13086 21.8262 9.13086Z"/>
  </g>
  <g id="Thin-M" transform="matrix(1 0 0 1 803.395 1126)">
   <path d="M53.125-35.4492C63.8184-35.4492 72.168-44.6777 72.168-56.6406C72.168-67.9688 63.6719-77.3438 53.125-77.3438C42.627-77.3438 34.0332-67.9199 34.1309-56.5918C34.1309-44.6777 42.4805-35.4492 53.125-35.4492ZM20.4102 8.69141L85.6445 8.69141C90.918 8.69141 93.6035 7.12891 93.6035 2.97852C93.6035-9.47266 78.0273-26.6602 53.0273-26.6602C28.0273-26.6602 12.4512-9.47266 12.4512 2.97852C12.4512 7.12891 15.1367 8.69141 20.4102 8.69141Z"/>
  </g>
  <g id="Ultralight-M" transform="matrix(1 0 0 1 506.83 1126)">
   <path d="M53.0273-35.4004C63.7207-35.4004 71.875-44.5312 71.875-56.4453C71.875-67.5781 63.5254-77.0508 53.0273-77.0508C42.4805-77.0508 34.0332-67.5781 34.1309-56.4453C34.1309-44.5312 42.2852-35.4004 53.0273-35.4004ZM19.6777 8.49609L86.084 8.49609C90.625 8.49609 93.3105 7.12891 93.3105 2.92969C93.3105-9.47266 77.832-26.6113 52.8809-26.6113C27.9785-26.6113 12.4512-9.47266 12.4512 2.92969C12.4512 7.12891 15.1367 8.49609 19.6777 8.49609Z"/>
  </g>
  <g id="Black-S" transform="matrix(1 0 0 1 2890.68 696)">
   <path d="M42.7246-35.4492C51.8066-35.4492 58.7891-43.2129 58.7891-52.8809C58.7891-62.0605 51.709-70.0684 42.7246-70.0684C33.7402-70.0684 26.6113-62.0605 26.6602-52.8809C26.709-43.2129 33.6426-35.4492 42.7246-35.4492ZM19.7266 0.927734L65.7227 0.927734C73.291 0.927734 75.6836-1.85547 75.6836-6.15234C75.6836-15.8203 62.5488-28.9551 42.7246-28.9551C22.9004-28.9551 9.76562-15.8203 9.76562-6.15234C9.76562-1.85547 12.1582 0.927734 19.7266 0.927734Z"/>
  </g>
  <g id="Heavy-S" transform="matrix(1 0 0 1 2594.11 696)">
   <path d="M42.5781-35.498C51.416-35.498 58.4961-43.1641 58.4961-52.832C58.4961-62.1094 51.3672-69.873 42.5781-69.873C33.7891-69.873 26.6113-62.0605 26.6602-52.832C26.709-43.1641 33.6914-35.498 42.5781-35.498ZM19.4336 0.683594L65.7227 0.683594C73.0469 0.683594 75.3906-1.85547 75.3906-5.95703C75.3906-15.6738 62.4023-28.9062 42.5781-28.9062C22.7051-28.9062 9.76562-15.6738 9.76562-5.95703C9.76562-1.85547 12.1094 0.683594 19.4336 0.683594Z"/>
  </g>
  <g id="Bold-S" transform="matrix(1 0 0 1 2297.59 696)">
   <path d="M42.3828-35.5469C51.0254-35.5469 58.1055-43.1641 58.1055-52.7832C58.1055-62.1582 50.9766-69.6289 42.3828-69.6289C33.8379-69.6289 26.6602-62.0605 26.6602-52.7344C26.709-43.1641 33.7891-35.5469 42.3828-35.5469ZM19.0918 0.439453L65.7227 0.439453C72.7539 0.439453 75-1.9043 75-5.71289C75-15.4785 62.2559-28.9062 42.3828-28.9062C22.5098-28.9062 9.76562-15.4785 9.76562-5.71289C9.76562-1.9043 12.0117 0.439453 19.0918 0.439453Z"/>
  </g>
  <g id="Semibold-S" transform="matrix(1 0 0 1 2001.01 696)">
   <path d="M42.2852-35.5957C50.7324-35.5957 57.8613-43.1152 57.8613-52.7344C57.8613-62.207 50.6836-69.4824 42.2852-69.4824C33.8379-69.4824 26.6602-62.0605 26.6602-52.6855C26.6602-43.1152 33.8379-35.5957 42.2852-35.5957ZM18.8477 0.244141L65.6738 0.244141C72.5586 0.244141 74.7559-1.9043 74.7559-5.56641C74.7559-15.3809 62.1582-28.8574 42.2852-28.8574C22.4121-28.8574 9.76562-15.3809 9.76562-5.56641C9.76562-1.9043 12.0117 0.244141 18.8477 0.244141Z"/>
  </g>
  <g id="Medium-S" transform="matrix(1 0 0 1 1704.37 696)">
   <path d="M42.1875-35.6445C50.5371-35.6445 57.7148-43.1152 57.7148-52.7344C57.7148-62.207 50.4883-69.3359 42.1875-69.3359C33.8867-69.3359 26.6602-62.0605 26.6602-52.6367C26.6602-43.1152 33.8379-35.6445 42.1875-35.6445ZM18.6523 0.146484L65.6738 0.146484C72.4121 0.146484 74.6094-1.9043 74.6094-5.41992C74.6094-15.2832 62.0605-28.8574 42.1875-28.8574C22.2656-28.8574 9.76562-15.2832 9.76562-5.41992C9.76562-1.9043 11.9629 0.146484 18.6523 0.146484Z"/>
  </g>
  <g id="Regular-S" transform="matrix(1 0 0 1 1407.78 696)">
   <path d="M42.041-35.6934C50.2441-35.6934 57.4707-43.0664 57.4707-52.6855C57.4707-62.2559 50.2441-69.1895 42.041-69.1895C33.8867-69.1895 26.6602-62.0605 26.6602-52.5879C26.6602-43.0664 33.8867-35.6934 42.041-35.6934ZM18.457-0.0488281L65.6738-0.0488281C72.2168-0.0488281 74.3652-1.9043 74.3652-5.27344C74.3652-15.1855 61.9629-28.8574 42.041-28.8574C22.168-28.8574 9.76562-15.1855 9.76562-5.27344C9.76562-1.9043 11.9141-0.0488281 18.457-0.0488281Z"/>
  </g>
  <g id="Light-S" transform="matrix(1 0 0 1 1111.26 696)">
   <path d="M41.8945-35.5957C50.1465-35.5957 57.1289-42.9199 57.1289-52.4414C57.1289-61.7188 50.0977-68.7988 41.8945-68.7988C33.6914-68.7988 26.6602-61.6211 26.709-52.3438C26.709-42.9199 33.6426-35.5957 41.8945-35.5957ZM17.4805-0.341797L66.2109-0.341797C71.8262-0.341797 73.9746-1.95312 73.9746-5.27344C73.9746-15.1367 61.6699-28.7109 41.8457-28.7109C22.0703-28.7109 9.76562-15.1367 9.76562-5.27344C9.76562-1.95312 11.9141-0.341797 17.4805-0.341797Z"/>
  </g>
  <g id="Thin-S" transform="matrix(1 0 0 1 814.796 696)">
   <path d="M41.6992-35.4492C50.0488-35.4492 56.6406-42.6758 56.6406-52.0996C56.6406-61.0352 49.9023-68.3105 41.6992-68.3105C33.4473-68.3105 26.6602-60.9863 26.709-52.0508C26.709-42.6758 33.3496-35.4492 41.6992-35.4492ZM16.2598-0.732422L66.9434-0.732422C71.3379-0.732422 73.4863-2.00195 73.4863-5.32227C73.4863-15.0879 61.2305-28.5645 41.6016-28.5645C21.9727-28.5645 9.76562-15.0879 9.76562-5.32227C9.76562-2.00195 11.8652-0.732422 16.2598-0.732422Z"/>
  </g>
  <g id="Ultralight-S" transform="matrix(1 0 0 1 518.232 696)">
   <path d="M41.6016-35.3516C49.9512-35.3516 56.3965-42.5781 56.3965-51.9043C56.3965-60.6934 49.8047-68.0664 41.6016-68.0664C33.3496-68.0664 26.6602-60.6445 26.7578-51.9043C26.7578-42.5781 33.2031-35.3516 41.6016-35.3516ZM15.625-0.927734L67.334-0.927734C71.0938-0.927734 73.1934-2.05078 73.1934-5.32227C73.1934-15.0391 61.0352-28.4668 41.5039-28.4668C21.9238-28.4668 9.76562-15.0391 9.76562-5.32227C9.76562-2.05078 11.8652-0.927734 15.625-0.927734Z"/>
  </g>
 </g>
</svg>
